Coordinates
version=1
nRows=25
nColumns=28
inDegrees=yes

Units are S.I. units (second, meters, Newtons, ...)
Angles are in degrees.

endheader
time	pelvis_tilt	pelvis_list	pelvis_rotation	pelvis_tx	pelvis_ty	pelvis_tz	hip_flexion_r	hip_adduction_r	hip_rotation_r	knee_angle_r	ankle_angle_r	subtalar_angle_r	mtp_angle_r	hip_flexion_l	hip_adduction_l	hip_rotation_l	knee_angle_l	socket_flexion	socket_adduction	socket_rotation	socket_tx	socket_ty	socket_tz	foot_flex	lumbar_extension	lumbar_bending	lumbar_rotation
      0.00000000	     -0.35825864	     -6.02420062	     -9.70024589	     -0.87948819	      0.99452924	      0.27827380	    -24.92408494	      7.99792347	      5.66538369	     -3.15742747	     11.28375970	     -8.46609425	      5.23637026	     25.63054214	     -8.28558995	      9.81326030	     -8.48589454	     -4.42616156	      0.00000000	      0.00000000	      0.00000000	     -0.00346245	      0.00000000	     -0.31093134	    -11.72553242	      3.63835171	     11.48095544
      0.00416667	     -0.42422363	     -6.06122694	     -9.62684346	     -0.87385666	      0.99386023	      0.27787912	    -25.04949323	      8.00931699	      5.71393900	     -3.36696343	     11.22896796	     -8.46690955	      5.23433367	     25.48449442	     -8.19909944	      9.80879573	     -8.50198560	     -4.45234284	      0.00000000	      0.00000000	      0.00000000	     -0.00375295	      0.00000000	     -0.38561162	    -11.57115371	      3.68719468	     11.48243944
      0.00833333	     -0.47609918	     -6.15872361	     -9.66537676	     -0.86823310	      0.99331038	      0.27759190	    -25.02307778	      8.04072468	      5.64481696	     -3.92183479	     10.96004086	     -8.54881503	      5.22027593	     25.23480491	     -8.23514612	      9.80289535	     -8.37455346	     -4.46173496	      0.00000000	      0.00000000	      0.00000000	     -0.00419741	      0.00000000	     -0.87541204	    -11.50765030	      3.79839890	     11.46430679
      0.01250000	     -0.54298282	     -6.25996035	     -9.68733892	     -0.86236256	      0.99270346	      0.27729428	    -25.02299239	      8.08140515	      5.64136480	     -4.41693569	     10.77399551	     -8.60176366	      5.23650100	     24.98883481	     -8.26573461	      9.81848096	     -8.23952462	     -4.41869594	      0.00000000	      0.00000000	      0.00000000	     -0.00466798	      0.00000000	     -1.13918279	    -11.40421668	      3.91534538	     11.47181494
      0.01666667	     -0.62103185	     -6.36195657	     -9.70935175	     -0.85630691	      0.99206785	      0.27694154	    -25.01095793	      8.11995743	      5.67146288	     -4.93361675	     10.59935285	     -8.64895953	      5.26254687	     24.73659703	     -8.29480009	      9.84983071	     -8.08221405	     -4.35527981	      0.00000000	      0.00000000	      0.00000000	     -0.00520896	      0.00000000	     -1.42942888	    -11.28064802	      4.03154595	     11.49122836
      0.02083333	     -0.72936399	     -6.50418211	     -9.77953756	     -0.85004456	      0.99141022	      0.27666858	    -24.94515648	      8.18867104	      5.70904274	     -5.52775879	     10.40481073	     -8.71124363	      5.34792985	     24.43054959	     -8.39955123	      9.85410889	     -7.74959927	     -4.17355683	      0.00000000	      0.00000000	      0.00000000	     -0.00590160	      0.00000000	     -1.67143417	    -11.12788458	      4.21683551	     11.56507696
      0.02500000	     -0.88581665	     -6.59665930	    -10.02660426	     -0.84347318	      0.99079269	      0.27676645	    -24.86875496	      8.15060123	      6.01781467	     -6.07419642	     10.12277730	     -8.81775533	      5.87862559	     23.86991075	     -8.58795948	      9.72775528	     -6.71884290	     -3.56056776	      0.00000000	      0.00000000	      0.00000000	     -0.00679755	      0.00000000	     -1.92361107	    -10.87326562	      4.29211159	     11.91276419
      0.02916667	     -0.95200782	     -6.62841238	     -9.95185947	     -0.83681682	      0.99015879	      0.27632754	    -24.97512039	      8.14583386	      6.09387710	     -6.38000643	     10.03286536	     -8.82259081	      5.87636938	     23.64704578	     -8.48793599	      9.78200251	     -6.75537933	     -3.59276131	      0.00000000	      0.00000000	      0.00000000	     -0.00741112	      0.00000000	     -2.04246923	    -10.69080960	      4.33509808	     11.91072240
      0.03333333	     -0.98970456	     -6.69761320	     -9.97497408	     -0.83054771	      0.98974261	      0.27600824	    -24.86894814	      8.15727229	      6.07572885	     -7.14020789	      9.66300079	     -8.92890206	      5.85133798	     23.34096718	     -8.48812904	      9.91185605	     -6.66474880	     -3.59036487	      0.00000000	      0.00000000	      0.00000000	     -0.00800266	      0.00000000	     -2.55037904	    -10.64634773	      4.38669428	     11.88088863
      0.03750000	     -1.06067221	     -6.79342406	     -9.98481902	     -0.82404713	      0.98923805	      0.27561696	    -24.77249807	      8.19431675	      6.05578834	     -7.83239888	      9.32974308	     -9.05322161	      5.85330277	     23.04515095	     -8.50399600	      9.99294384	     -6.52975683	     -3.50555836	      0.00000000	      0.00000000	      0.00000000	     -0.00878399	      0.00000000	     -2.82792290	    -10.53065145	      4.50194219	     11.87232618
      0.04166667	     -1.12746965	     -6.81841165	     -9.89283794	     -0.81709195	      0.98869345	      0.27515522	    -24.86538253	      8.19580331	      6.15576964	     -8.16817610	      9.23129241	     -9.06029569	      5.85219978	     22.79527002	     -8.39396019	     10.05735038	     -6.55933222	     -3.51057918	      0.00000000	      0.00000000	      0.00000000	     -0.00956771	      0.00000000	     -2.90227165	    -10.30251447	      4.55986061	     11.87351497
      0.04583333	     -1.44516609	     -6.95496029	    -10.12493591	     -0.81047551	      0.98810630	      0.27512605	    -24.37530264	      8.26395669	      6.36346352	     -9.14555178	      8.52371073	     -9.59809069	      6.21843748	     22.39393593	     -8.65255993	     10.16393014	     -5.53877752	     -2.85994023	      0.00000000	      0.00000000	      0.00000000	     -0.01056765	      0.00000000	     -3.29300319	     -9.93258674	      4.75935737	     11.99114907
      0.05000000	     -1.47155938	     -6.95536447	    -10.09889254	     -0.80383768	      0.98782769	      0.27480553	    -24.31557501	      8.22735934	      6.44355839	     -9.79949281	      8.16851523	     -9.69391430	      6.21938430	     22.08292344	     -8.56230283	     10.26195634	     -5.53824397	     -2.85425576	      0.00000000	      0.00000000	      0.00000000	     -0.01127937	      0.00000000	     -3.55686096	     -9.82492700	      4.72383955	     11.97123453
      0.05416667	     -1.51334117	     -6.95696471	    -10.09043198	     -0.79714264	      0.98760650	      0.27442228	    -24.18091791	      8.18153416	      6.44950546	    -10.55259766	      7.72413126	     -9.87580124	      6.22492180	     21.76264005	     -8.48019526	     10.31939746	     -5.47393120	     -2.78819826	      0.00000000	      0.00000000	      0.00000000	     -0.01206498	      0.00000000	     -3.79103663	     -9.69568730	      4.72140062	     11.94443988
      0.05833333	     -1.52066692	     -6.90352593	    -10.22736358	     -0.79018300	      0.98755999	      0.27445512	    -24.15487351	      8.03677981	      6.74499062	    -11.13750972	      6.38161876	    -10.83905443	      8.88694545	     21.10334726	     -8.45976219	     10.20978049	     -4.71026535	     -2.30028921	      0.00000000	      0.00000000	      0.00000000	     -0.01292599	      0.00000000	     -3.99245482	     -9.56029815	      4.61940874	     12.05481407
      0.06250000	     -1.54814092	     -6.85434418	    -10.15645266	     -0.78354745	      0.98749611	      0.27400425	    -23.99647834	      7.97612540	      6.79099300	    -11.90561128	      5.97701439	    -10.90552743	      8.81376306	     20.81670581	     -8.30324158	     10.34184680	     -4.74321492	     -2.28870751	      0.00000000	      0.00000000	      0.00000000	     -0.01355009	      0.00000000	     -4.19981681	     -9.45272304	      4.53816675	     12.00931566
      0.06666667	     -1.60548502	     -6.76074465	    -10.13808325	     -0.77673241	      0.98745155	      0.27364961	    -23.71957184	      7.85024591	      6.62795425	    -12.82340359	      5.40635495	    -11.11858834	      8.72968881	     20.51843273	     -8.13324939	     10.34734103	     -4.70912253	     -2.20626510	      0.00000000	      0.00000000	      0.00000000	     -0.01426428	      0.00000000	     -4.36901539	     -9.26094661	      4.43920159	     11.92789047
      0.07083333	     -1.64735842	     -6.64051565	    -10.08861744	     -0.76998090	      0.98750129	      0.27327758	    -23.45991906	      7.71770939	      6.57443110	    -13.71232491	      4.85859510	    -11.28798334	      8.67748699	     20.21545222	     -7.92858698	     10.41372987	     -4.67595324	     -2.13312573	      0.00000000	      0.00000000	      0.00000000	     -0.01483990	      0.00000000	     -4.53921223	     -9.07108399	      4.29573831	     11.83637457
      0.07500000	     -1.67785881	     -6.49979455	    -10.01723834	     -0.76327948	      0.98763978	      0.27284812	    -23.16256525	      7.57358730	      6.51162731	    -14.66071502	      4.27001098	    -11.45887465	      8.62677444	     19.91978825	     -7.69540462	     10.45371850	     -4.65501001	     -2.03890391	      0.00000000	      0.00000000	      0.00000000	     -0.01540835	      0.00000000	     -4.69787808	     -8.93043006	      4.12554163	     11.73450949
      0.07916667	     -1.72096224	     -6.26473158	     -9.94597000	     -0.75647041	      0.98783100	      0.27247433	    -22.81008424	      7.33359958	      6.34135624	    -15.64227477	      3.58895095	    -11.68918253	      8.63813147	     19.62385175	     -7.37179161	     10.42124758	     -4.59061229	     -1.90363477	      0.00000000	      0.00000000	      0.00000000	     -0.01583076	      0.00000000	     -4.81108124	     -8.72050427	      3.84909548	     11.60379197
      0.08333333	     -1.70291555	     -6.12806388	     -9.82174505	     -0.74987488	      0.98818073	      0.27200458	    -22.57855554	      7.22789031	      6.46298491	    -16.53141439	      3.09588734	    -11.72977377	      8.60230352	     19.30774884	     -7.13765203	     10.60215001	     -4.63355736	     -1.84282677	      0.00000000	      0.00000000	      0.00000000	     -0.01624500	      0.00000000	     -4.93139204	     -8.63586327	      3.63878897	     11.51754567
      0.08750000	     -1.71018353	     -5.59645999	     -9.72158866	     -0.74271117	      0.98840305	      0.27160361	    -22.04277436	      6.60983740	      5.54212162	    -17.76642970	      1.70841953	    -11.73750947	     11.77704729	     18.93931745	     -6.49219253	     10.34782268	     -4.41489781	     -1.61374112	      0.00000000	      0.00000000	      0.00000000	     -0.01643491	      0.00000000	     -5.01959088	     -8.35984319	      3.03704864	     11.27428023
      0.09166667	     -1.65129709	     -5.42651172	     -9.63343823	     -0.73613734	      0.98892602	      0.27107339	    -21.67687937	      6.41881896	      5.40613403	    -18.92680393	      0.97355433	    -11.90925100	     11.65211573	     18.58847911	     -6.21591523	     10.34538303	     -4.48350212	     -1.54414390	      0.00000000	      0.00000000	      0.00000000	     -0.01682370	      0.00000000	     -5.10704594	     -8.32236528	      2.83130917	     11.14094722
      0.09583333	     -1.59351572	     -5.24146974	     -9.48497677	     -0.72965596	      0.98950226	      0.27056151	    -21.35794917	      6.27774505	      5.48811157	    -19.98943836	      0.37624277	    -11.96006637	     11.55959441	     18.25567992	     -5.92893248	     10.50333374	     -4.55486578	     -1.47177122	      0.00000000	      0.00000000	      0.00000000	     -0.01705912	      0.00000000	     -5.17190071	     -8.29529645	      2.56471933	     11.03416483
      0.10000000	     -1.57483816	     -4.64650169	     -9.37978727	     -0.72260730	      0.99003621	      0.27014567	    -20.76312465	      5.60972859	      4.73053107	    -21.34480117	     -0.62556190	    -12.17993830	     11.55562641	     17.93735516	     -5.20421398	     10.14910638	     -4.52511558	     -1.35285058	      0.00000000	      0.00000000	      0.00000000	     -0.01692721	      0.00000000	     -5.21074642	     -8.05028949	      1.87508848	     10.79195802
